<?xml version="1.0" encoding="utf-8"?>
<!-- Generator: Adobe Illustrator 28.0.0, SVG Export Plug-In . SVG Version: 6.00 Build 0)  -->
<svg version="1.1" id="Слой_1" xmlns="http://www.w3.org/2000/svg" xmlns:xlink="http://www.w3.org/1999/xlink" x="0px" y="0px"
	 viewBox="0 0 1036 324" style="enable-background:new 0 0 1036 324;" xml:space="preserve">
<style type="text/css">
	.st0{fill-rule:evenodd;clip-rule:evenodd;fill:#FF3F3F;}
	.st1{fill:#FFFFFF;}
</style>
<g>
	<path class="st0" d="M593.65,38.69c-9.16,10.37-13.74,27.09-13.74,50.17c0,22.94,4.58,39.87,13.74,50.79
		c9.3,10.92,24.35,16.38,45.17,16.38c20.95,0,36.08-5.53,45.38-16.58c9.44-11.06,14.15-28.06,14.15-51
		c0-23.08-4.57-39.73-13.74-49.96c-9.02-10.23-24.14-15.34-45.38-15.34C618.15,23.14,602.95,28.32,593.65,38.69 M639.24,58.8
		c5.97,0,9.85,1.8,11.66,5.39c1.8,3.46,2.71,10.85,2.71,22.18v9.54c0,11.47-0.76,18.86-2.29,22.18c-1.53,3.32-5.34,4.97-11.45,4.97
		c-6.11,0-10.06-1.73-11.86-5.18c-1.8-3.46-2.71-10.99-2.71-22.6v-9.12c0-11.33,0.83-18.73,2.5-22.18
		C629.46,60.52,633.27,58.8,639.24,58.8 M223.35,25.21l-26.63,128.74h-49.54l-10.61-52.24l-9.16,52.24H77.87L58.29,66.78L79.25,59
		H57.96H36.67l-7.06-33.74l60.14-0.06l12.59,59.08l15.29-59.08h39.34l15.92,59.08l11.13-59.08H223.35z M329.77,153.95h-43.71
		l-4.16-19.9h-23.1l-4.37,19.9h-41.84l26.85-128.74h63.48L329.77,153.95z M278.77,107.3l-8.33-43.12l-8.53,43.12H278.77z
		 M439.94,86.57c2.78-4.98,4.16-11.61,4.16-19.9c0-14.24-3.82-24.67-11.45-31.3c-7.63-6.77-19.5-10.16-35.59-10.16l-76.31,0.06
		L327.81,59h37.42l-23.33,7.77v87.18h42.67v-44.36h3.33l12.91,44.36h46l-19.36-54.52C433.14,95.7,437.3,91.41,439.94,86.57
		 M395.6,81.6c-1.25,1.8-3.47,2.7-6.66,2.7h-5.2V59.21h5.41c2.91,0,5.06,0.9,6.45,2.7c1.39,1.8,2.08,5.04,2.08,9.74
		C397.68,76.35,396.99,79.66,395.6,81.6 M524.74,113.73h-8.95v40.22h-43.71V66.67L496.1,59h-37.42l-7.06-33.74l70.83-0.06
		c1.25,0,2.47,0.02,3.67,0.06h0.92l0.01,0.03c14.72,0.58,25.6,4,32.66,10.28c7.77,6.91,11.66,18.31,11.66,34.21
		c0,15.89-3.75,27.23-11.24,34C552.63,110.41,540.84,113.73,524.74,113.73 M514.96,59.13h9.55c0.9,0.53,1.6,1.25,2.11,2.15
		c1.39,2.21,2.08,5.94,2.08,11.19c0,5.25-0.62,8.98-1.87,11.19c-1.11,2.21-3.26,3.32-6.45,3.32h-5.41V59.13z M755.42,153.95h-43.92
		V25.21h43.92v35.02h-33.65l33.65,9.55V153.95z M843.15,153.95h46.32V66.77l-25.8-6.54l56.64,0.02v93.7h44.34v-93.7h30.05
		l14.1-35.04H845.64v52.45l-25.81-52.45h-47.79v128.74h43.42v-50.79L843.15,153.95z"/>
</g>
<path class="st1" d="M224.17,250.19c0.21-2.27,0.35-4.7,0.68-7.11c1.86-13.59,15.15-28.37,32.65-29.61
	c7.69-0.55,14.92,0.56,21.66,4.3c5.33,2.96,9.63,7.13,12.96,12.18c4.45,6.74,7.29,14.09,7.2,22.34c-0.05,4.18-1.03,8.17-2.74,11.93
	c-6.12,13.47-16.1,22.03-31.12,23.94c-11.38,1.44-21.19-2-29.55-9.79C227.76,270.79,223.93,261.44,224.17,250.19z M276.52,251.77
	c0.13-3.29-0.72-6.3-2.38-9.1c-4.62-7.82-15.17-8.24-20.65-4.08c-8.95,6.8-8.07,18.39-0.01,24.75c0.93,0.73,2.1,1.26,3.24,1.59
	c4.38,1.29,8.68,0.94,12.84-0.98c3.38-1.56,5.37-4.27,6.32-7.77C276.26,254.76,276.32,253.25,276.52,251.77z"/>
<path class="st1" d="M171.79,288.53c-7.8,0-15.17,0-22.46,0c-0.14-0.14-0.21-0.2-0.28-0.27c-0.06-0.07-0.16-0.14-0.17-0.21
	c-0.06-0.46-0.15-0.92-0.15-1.39c-0.04-22.9-0.08-45.8-0.11-68.69c0-0.27,0.14-0.53,0.26-0.97c0.57-0.09,1.18-0.3,1.8-0.29
	c9.53,0.19,19.07,0.29,28.6,0.64c7.81,0.29,14.52,3.54,20.11,8.83c4.4,4.16,6.14,9.71,6.73,15.63c0.57,5.74-0.51,11.2-3.3,16.22
	c-1.07,1.93-2.65,3.59-4.08,5.3c-2,2.4-2.03,2.37-0.43,5.05c3.6,6.01,7.19,12.03,10.78,18.05c0.33,0.55,0.58,1.13,1,1.94
	c-0.67,0.16-1.16,0.38-1.65,0.38c-7.95,0.02-15.9,0-23.85,0.04c-1.37,0.01-2.23-0.49-2.95-1.66c-2.62-4.2-5.33-8.35-8.01-12.51
	c-0.49-0.76-1.04-1.49-1.74-2.48c-1.17,1.91-0.39,3.63-0.38,5.27c0.02,1.87,0.21,3.73,0.26,5.6
	C171.83,284.73,171.79,286.49,171.79,288.53z M171.35,244.41c0,0-0.01,0-0.01,0c0,1.95,0.01,3.91,0,5.86
	c-0.01,1.02,0.28,1.8,1.37,2.14c3.27,1.03,7.78-0.82,9.37-3.97c1.56-3.09,1.43-6.14-0.62-8.96c-2.19-3.02-5.4-3.34-8.78-3.04
	c-1.09,0.1-1.31,0.93-1.32,1.82C171.34,240.32,171.35,242.36,171.35,244.41z"/>
<path class="st1" d="M419.98,216.74c0,4.97,0,9.99,0,14.94c1.43,0.69,1.83-0.45,2.37-1.08c3.4-3.99,6.82-7.95,10.07-12.06
	c1.31-1.66,2.73-2.23,4.8-2.14c8.22,0.39,16.44,0.64,24.64,0.94c0.47,1.28-0.38,1.9-0.93,2.58c-7.02,8.63-14.08,17.24-21.09,25.88
	c-2.95,3.63-2.92,3.66-0.4,7.69c6.11,9.75,12.24,19.48,18.34,29.23c1.32,2.11,2.56,4.27,4.02,6.72c-0.91,0.07-1.51,0.19-2.11,0.16
	c-7.2-0.33-14.39-0.73-21.59-1.01c-2.39-0.09-4.16-0.68-5.52-2.98c-3.05-5.15-6.42-10.1-9.68-15.12c-0.69-1.06-1.48-2.06-2.23-3.08
	c-0.23,0.06-0.45,0.11-0.68,0.17c-0.11,3.28-0.2,6.56-0.32,9.84c-0.12,3.34-0.27,6.68-0.41,9.91c-2.54,0.69-19.59,0.72-22.17,0.06
	c0-23.37,0-46.79,0-70.17C400.17,216.47,417.37,216.1,419.98,216.74z"/>
<path class="st1" d="M878.49,285.7c-8.46,0.23-16.22,0.44-23.97,0.68c-1.54,0.05-2.36-0.84-3.12-1.99
	c-2.57-3.91-5.16-7.8-7.76-11.69c-0.5-0.74-1.04-1.45-1.95-2.7c-0.18,1.28-0.33,1.87-0.34,2.47c-0.06,3.74-0.06,7.48-0.13,11.22
	c-0.02,0.99-0.22,1.98-0.36,3.25c-7.22-0.19-14.19-0.38-21.43-0.57c-0.12-1.56-0.33-2.93-0.32-4.29c0.1-20.48,0.22-40.96,0.35-61.44
	c0.01-0.91,0.11-1.83,0.17-2.86c0.7-0.11,1.24-0.28,1.77-0.27c9.17,0.17,18.34,0.2,27.5,0.61c6.54,0.3,12.33,2.94,17.39,7.06
	c3.06,2.49,5.14,5.82,6.3,9.47c2.91,9.19,2.53,18.09-3.49,26.14c-1.05,1.4-2.34,2.63-3.72,4.15
	C869.63,271.69,873.9,278.44,878.49,285.7z M841.13,244.57c0.03,0,0.06,0,0.09,0c0,1.96,0.02,3.92-0.01,5.87
	c-0.02,1.33,0.69,1.95,1.92,1.75c1.65-0.27,3.36-0.51,4.87-1.17c3.13-1.37,4.49-4.24,3.78-7.59c-0.72-3.4-2.8-5.57-6.2-6.49
	c-4.14-1.11-4.6-0.77-4.46,3.43C841.17,241.78,841.13,243.18,841.13,244.57z"/>
<path class="st1" d="M669.77,218.89c0.85-0.08,1.66-0.21,2.48-0.22c9.07-0.02,18.15-0.15,27.22,0.03
	c5.59,0.11,10.93,1.35,15.41,5.09c3.02,2.52,4.81,5.67,5.49,9.48c0.7,3.95,0.31,7.84-1.07,11.59c-0.41,1.11-1.16,2.11-1.81,3.13
	c-0.44,0.69-0.96,1.33-1.53,2.12c0.74,0.82,1.32,1.55,1.98,2.18c4.76,4.49,6.18,10.1,5.43,16.38c-0.82,6.9-4.04,12.34-10.05,16.03
	c-1.95,1.2-4.05,1.97-6.31,2.15c-12.05,0.95-24.11,0.7-36.17,0.21c-0.27-0.01-0.53-0.16-1.07-0.33
	C669.77,264.23,669.77,241.67,669.77,218.89z M690.77,259.98c-0.1,3.61-0.28,7.08-0.06,11c2.6-0.27,4.84-0.28,6.96-0.8
	c2.2-0.53,3.36-2.3,3.48-4.56c0.13-2.25-0.87-4.02-2.88-5.03C695.97,259.44,693.51,259.29,690.77,259.98z M691.57,244.03
	c3.4,0.61,6.08-0.32,7.15-2.34c0.87-1.63,0.52-3.95-0.78-5.18c-1.63-1.55-4.57-1.85-6.57-0.71c0,2.16-0.01,4.3,0.01,6.44
	C691.37,242.79,691.49,243.33,691.57,244.03z"/>
<path class="st1" d="M373.82,219.63c-3.86,7.03-7.48,13.64-11.19,20.41c-0.78-0.49-1.34-0.79-1.84-1.17
	c-7.14-5.42-18.72-3.87-24.23,3.22c-4.59,5.91-3.69,17.88,5.98,21.51c6.82,2.56,12.98,1.67,19.02-1.92
	c1.12-0.67,2.22-1.37,3.34-2.06c0.07-0.05,0.18-0.04,0.66-0.12c3.94,5.89,7.97,11.91,12.18,18.2c-2.85,2.37-5.64,4.35-8.69,5.94
	c-9.13,4.75-18.71,5.37-28.63,3.11c-6.3-1.43-12.07-3.84-17.12-7.95c-4.86-3.96-8.18-8.92-10.12-14.84
	c-2.54-7.73-2.89-15.69-1.3-23.55c1.43-7.1,5.06-13.29,10.82-17.9c11.76-9.4,24.95-11.76,39.35-7.57c2.87,0.84,5.68,1.88,8.48,2.92
	C371.55,218.25,372.47,218.89,373.82,219.63z"/>
<path class="st1" d="M762.13,217.79c5.32,0,10.28,0.02,15.23-0.02c1.18-0.01,1.64,0.68,1.99,1.6c1.04,2.71,2.11,5.4,3.12,8.11
	c6.46,17.35,12.91,34.71,19.35,52.07c0.87,2.35,1.67,4.72,2.59,7.32c-0.96,0.08-1.57,0.18-2.18,0.18
	c-5.52,0.01-11.04-0.06-16.56,0.04c-1.75,0.03-2.72-0.55-3.4-2.17c-1.82-4.37-0.86-4.18-6.59-4.11c-4.3,0.05-8.61,0.04-12.91,0.09
	c-2.41,0.03-2.43,0.07-3.27,2.24c-1.61,4.14-1.61,4.15-5.9,4.18c-4.77,0.04-9.55,0.07-14.32,0.1c-0.91,0.01-1.82,0-3.27,0
	C744.81,264,753.43,241.02,762.13,217.79z M774.97,265.51c-0.45-3.09-3.2-9.88-4.83-11.81c-1.43,3.87-2.49,7.61-3.77,11.71
	C769.5,265.72,772.13,265.62,774.97,265.51z"/>
<path class="st1" d="M502.61,235.31c0,3.08,0,5.84,0,8.9c6.38,0.48,12.6-0.15,19.07,0.03c0.44,5.64,0.14,11.08,0.18,16.7
	c-1.12,0.08-1.94,0.18-2.75,0.18c-4.68,0-9.36-0.03-14.04-0.04c-3.36,0-3.36,0.01-3.37,3.47c-0.01,1.29,0,2.58,0,4.19
	c3.62,0.42,6.96,0.16,10.28,0.21c3.36,0.05,6.72,0.01,10.37,0.01c0.6,6.37,0.18,12.55,0.05,18.92c-14.37,0-28.46,0-42.53,0
	c-0.6-2.13-0.88-68.34-0.23-71.54c13.97-0.36,28.03-0.72,42.4-1.08c0.28,6.51,0.21,12.62-0.16,19.13
	C515.54,235.08,509.18,234.47,502.61,235.31z"/>
<path class="st1" d="M587.88,215.8c0.18,6.31,0.35,12.24,0.53,18.48c-2.13,0.16-3.96,0.32-5.81,0.42c-1.68,0.09-3.37,0.05-5.05,0.15
	c-2.16,0.12-2.32,0.32-2.33,2.55c-0.02,3.55,0,7.1-0.04,10.65c-0.13,11.78-0.27,23.55-0.42,35.33c-0.02,1.3-0.12,2.59-0.2,4.07
	c-7.7,0-15.22,0-23.05,0c-0.06-1.22-0.16-2.3-0.17-3.38c-0.05-14.95-0.08-29.91-0.12-44.86c-0.01-3.71-0.02-3.72-3.65-3.8
	c-2.34-0.05-4.68-0.06-7.01-0.11c-0.82-0.02-1.63-0.13-2.62-0.21c0-6.4,0-12.61,0-19.18C554.55,215.5,571.03,215.96,587.88,215.8z"
	/>
<path class="st1" d="M904.64,246.53c4.29-0.8,7.74-1.68,11.25-2.03c2.73-0.28,4.16-1.75,5.28-3.93c1.54-2.99,3.11-5.96,4.69-8.92
	c0.25-0.47,0.61-0.87,1.15-1.61c1.29,2.6,2.45,4.92,3.58,7.26c0.65,1.34,1.26,2.71,1.85,4.08c0.69,1.6,1.79,2.45,3.62,2.59
	c2.98,0.22,5.94,0.65,8.91,1.02c1.18,0.15,2.34,0.39,3.98,0.67c-1.6,2.18-2.92,4.04-4.31,5.84c-0.91,1.18-1.8,2.42-2.9,3.41
	c-2.19,1.98-2.59,4.34-2.12,7.1c0.43,2.57,0.69,5.18,0.95,7.78c0.1,1,0.02,2.03,0.02,3.43c-1.06-0.41-1.89-0.71-2.71-1.06
	c-3.43-1.47-6.87-2.93-10.27-4.47c-1.32-0.6-2.45-0.46-3.72,0.17c-3.09,1.54-6.24,2.96-9.38,4.41c-0.57,0.26-1.18,0.45-2.04,0.78
	c0-0.98-0.09-1.68,0.02-2.36c0.53-3.41,1.03-6.84,1.7-10.22c0.34-1.71,0.07-3.09-1.13-4.37c-2.18-2.31-4.3-4.67-6.42-7.03
	C906.04,248.41,905.54,247.69,904.64,246.53z"/>
<path class="st1" d="M114.69,273.5c-2.73-1.01-5.08-1.88-7.42-2.74c-1.75-0.65-3.53-1.23-5.26-1.95c-1.48-0.61-2.88-0.59-4.35-0.02
	c-2.53,0.98-5.08,1.89-7.63,2.81c-0.86,0.31-1.74,0.55-2.85,0.9c-0.09-0.87-0.24-1.47-0.21-2.07c0.15-2.8,0.26-5.61,0.57-8.39
	c0.24-2.12-0.3-3.76-1.85-5.28c-2.39-2.36-4.6-4.92-6.87-7.4c-0.36-0.4-0.68-0.84-1.19-1.49c0.8-0.27,1.35-0.52,1.94-0.64
	c3.03-0.61,6.04-1.31,9.09-1.72c2.78-0.38,4.53-1.77,5.75-4.25c1.44-2.93,3.17-5.72,4.78-8.57c0.09-0.15,0.27-0.24,0.57-0.5
	c0.37,0.51,0.79,0.96,1.07,1.49c1.56,2.98,3.14,5.96,4.59,8.99c0.67,1.4,1.61,2.16,3.16,2.39c3.23,0.49,6.45,1.09,9.67,1.66
	c1.09,0.19,2.16,0.45,3.58,0.75c-0.52,0.76-0.79,1.31-1.19,1.73c-2.2,2.3-4.37,4.62-6.67,6.81c-1.54,1.47-1.89,3.03-1.4,5.06
	c0.7,2.9,1.2,5.85,1.73,8.79C114.51,270.94,114.55,272.04,114.69,273.5z"/>
<path class="st1" d="M276.52,251.77c-0.21,1.48-0.26,3-0.65,4.42c-0.94,3.49-2.94,6.21-6.32,7.77c-4.16,1.91-8.45,2.27-12.84,0.98
	c-1.14-0.34-2.31-0.86-3.24-1.59c-8.06-6.36-8.94-17.95,0.01-24.75c5.49-4.17,16.04-3.75,20.65,4.08
	C275.8,245.47,276.66,248.48,276.52,251.77z"/>
<path class="st1" d="M171.35,244.41c0-2.05-0.02-4.1,0.01-6.14c0.01-0.89,0.23-1.72,1.32-1.82c3.38-0.3,6.59,0.02,8.78,3.04
	c2.05,2.82,2.18,5.87,0.62,8.96c-1.59,3.14-6.09,5-9.37,3.97c-1.09-0.34-1.38-1.12-1.37-2.14c0.01-1.95,0-3.91,0-5.86
	C171.35,244.41,171.35,244.41,171.35,244.41z"/>
<path class="st1" d="M841.13,244.57c0-1.4,0.04-2.8-0.01-4.2c-0.14-4.2,0.32-4.54,4.46-3.43c3.4,0.92,5.48,3.09,6.2,6.49
	c0.71,3.35-0.65,6.22-3.78,7.59c-1.51,0.66-3.22,0.89-4.87,1.17c-1.23,0.2-1.93-0.41-1.92-1.75c0.02-1.96,0.01-3.92,0.01-5.87
	C841.19,244.57,841.16,244.57,841.13,244.57z"/>
<path class="st1" d="M690.77,259.98c2.74-0.69,5.19-0.54,7.5,0.62c2,1.01,3,2.78,2.88,5.03c-0.13,2.26-1.28,4.02-3.48,4.56
	c-2.12,0.51-4.35,0.52-6.96,0.8C690.5,267.06,690.68,263.59,690.77,259.98z"/>
<path class="st1" d="M691.57,244.03c-0.08-0.7-0.19-1.24-0.2-1.79c-0.02-2.14-0.01-4.28-0.01-6.44c2.01-1.15,4.95-0.84,6.57,0.71
	c1.3,1.24,1.65,3.55,0.78,5.18C697.65,243.71,694.97,244.64,691.57,244.03z"/>
<path class="st1" d="M774.97,265.51c-2.84,0.11-5.48,0.21-8.6-0.09c1.28-4.11,2.34-7.84,3.77-11.71
	C771.77,255.62,774.52,262.42,774.97,265.51z"/>
</svg>
